<svg xmlns="http://www.w3.org/2000/svg" width="70.502" height="19.434" viewBox="0 0 70.502 19.434"><path d="M231.91,94.52h1.723L235,99.646l1.641-5.126h1.723l1.64,5.126,1.372-5.126H243.1l-2.232,7.64h-1.6l-1.749-5.249-1.758,5.249h-1.608Z" transform="translate(-212.444 -90.726)" fill="#e4282b"/><path d="M333.992,113.441l1,1.056a3.352,3.352,0,0,1-2.278.89,2.915,2.915,0,0,1-2.958-3.025,2.857,2.857,0,0,1,2.872-2.992c1.75,0,2.775,1.369,2.775,3.536H331.38a1.361,1.361,0,0,0,1.328,1.046A1.992,1.992,0,0,0,333.992,113.441Zm-2.6-1.7h2.495a1.172,1.172,0,0,0-1.2-.935A1.352,1.352,0,0,0,331.4,111.739Z" transform="translate(-299.054 -103.82)" fill="#e4282b"/><path d="M394.233,98.292c0,1.769-1.08,3.014-2.57,3.014a2.259,2.259,0,0,1-1.868-.946v.812H388.22V93.4H389.8v2.824a2.274,2.274,0,0,1,1.868-.935A2.708,2.708,0,0,1,394.233,98.292Zm-1.532,0a1.5,1.5,0,0,0-1.493-1.634,1.442,1.442,0,0,0-1.415,1.411v.445a1.441,1.441,0,0,0,1.415,1.42A1.5,1.5,0,0,0,392.7,98.292Z" transform="translate(-350.798 -89.739)" fill="#e4282b"/><path d="M451.762,113.441l1,1.056a3.354,3.354,0,0,1-2.278.89,2.915,2.915,0,0,1-2.958-3.025,2.856,2.856,0,0,1,2.872-2.992c1.748,0,2.774,1.369,2.774,3.536h-4.027a1.363,1.363,0,0,0,1.329,1.046A1.993,1.993,0,0,0,451.762,113.441Zm-2.592-1.7h2.494a1.17,1.17,0,0,0-1.2-.935A1.352,1.352,0,0,0,449.17,111.739Z" transform="translate(-403.296 -103.82)" fill="#e4282b"/><path d="M505.472,116.214l-1.208-1.735-1.22,1.735H501.38l2.052-2.924-1.965-2.825h1.708l1.111,1.6,1.122-1.6h1.663l-1.953,2.791,2.052,2.957Z" transform="translate(-450.96 -104.781)" fill="#e4282b"/><path d="M565.195,112.37c0,1.769-1.08,3.014-2.57,3.014a2.255,2.255,0,0,1-1.868-.946v2.721H559.18V109.5h1.577v.8a2.274,2.274,0,0,1,1.868-.935A2.708,2.708,0,0,1,565.195,112.37Zm-1.534,0a1.5,1.5,0,0,0-1.493-1.634,1.442,1.442,0,0,0-1.414,1.411v.445a1.441,1.441,0,0,0,1.414,1.42A1.5,1.5,0,0,0,563.661,112.37Z" transform="translate(-502.12 -103.817)" fill="#e4282b"/><path d="M626.049,102.16l-1.694-2.484h-1.177v2.484H621.59V94.52h3.331a2.6,2.6,0,0,1,2.8,2.58,2.479,2.479,0,0,1-1.684,2.391l1.83,2.669Zm-2.872-3.981h1.576c.789,0,1.329-.422,1.329-1.079s-.54-1.079-1.329-1.079h-1.576Z" transform="translate(-557.361 -90.726)" fill="#e4282b"/><path d="M64.035,107.6l-1.585-.938v8.912l1.585-.946a1.087,1.087,0,0,0,.526-.937v-5.158A1.091,1.091,0,0,0,64.035,107.6Z" transform="translate(-62.45 -101.43)" fill="#e4282b"/><path d="M75.072,62.45l-7.4,4.4,1.586.946a1.028,1.028,0,0,0,1.05,0l4.767-2.839L79.839,67.8a1.023,1.023,0,0,0,1.05,0l1.586-.946Z" transform="translate(-67.07 -62.45)" fill="#e4282b"/><path d="M143.975,107.6a1.091,1.091,0,0,0-.525.937V115.2l-4.673,2.839a1.089,1.089,0,0,0-.527.937v1.883l7.308-4.4v-9.8Z" transform="translate(-129.543 -101.43)" fill="#e4282b"/><path d="M72.892,182.512l-4.262-2.536a1.026,1.026,0,0,0-1.049,0l-1.582.94,7.418,4.416-.022-1.879A1.081,1.081,0,0,0,72.892,182.512Z" transform="translate(-65.592 -165.945)" fill="#e4282b"/><path d="M251.749,175.062v.671h1.21v.322h-1.21v.716h1.337v.322H251.41V174.74h1.676v.322Z" transform="translate(-229.704 -161.456)" fill="#e4282b"/><path d="M269.7,181.447l-.469-.651-.472.651h-.366l.656-.9-.629-.866h.373l.439.609.442-.609h.365l-.625.866.655.907Z" transform="translate(-244.734 -165.812)" fill="#e4282b"/><path d="M287.809,180.234a.839.839,0,0,1-.791.927.694.694,0,0,1-.612-.349v.9h-.325V179.35h.325v.3a.7.7,0,0,1,.612-.345A.838.838,0,0,1,287.809,180.234Zm-.333,0a.543.543,0,1,0-.539.633A.572.572,0,0,0,287.476,180.234Z" transform="translate(-260.391 -165.485)" fill="#e4282b"/><path d="M305.313,175.652l.206.219a1.017,1.017,0,0,1-.689.274.9.9,0,0,1-.885-.908c0-.008,0-.015,0-.023a.878.878,0,0,1,.83-.921h.028c.526,0,.828.411.828,1.045h-1.359a.552.552,0,0,0,.549.506A.737.737,0,0,0,305.313,175.652Zm-1.034-.591h1.034a.486.486,0,0,0-.5-.473.543.543,0,0,0-.542.479Zm.469-.935h-.239l.4-.506.323.069Z" transform="translate(-276.204 -160.469)" fill="#e4282b"/><path d="M323.137,179.3v.295a.584.584,0,0,0-.639.51v1.007h-.329v-1.774h.325v.338A.679.679,0,0,1,323.137,179.3Z" transform="translate(-292.336 -165.478)" fill="#e4282b"/><path d="M333.19,173.913a.2.2,0,1,1,.2.206A.2.2,0,0,1,333.19,173.913Zm.033.5h.33v1.774h-.33Z" transform="translate(-302.09 -160.548)" fill="#e4282b"/><path d="M341.159,180.669l.206.219a1.017,1.017,0,0,1-.7.274.9.9,0,0,1-.885-.906c0-.008,0-.017,0-.025a.878.878,0,0,1,.83-.921h.028c.525,0,.828.41.828,1.045h-1.354a.552.552,0,0,0,.549.506A.74.74,0,0,0,341.159,180.669Zm-1.034-.591h1.034a.486.486,0,0,0-.5-.473.544.544,0,0,0-.542.479Z" transform="translate(-307.927 -165.486)" fill="#e4282b"/><path d="M359.43,179.984v1.126h-.323v-1.065a.409.409,0,0,0-.363-.447l-.034,0a.462.462,0,0,0-.472.37v1.146h-.328V179.34h.328v.257a.647.647,0,0,1,1.192.332C359.431,179.947,359.431,179.966,359.43,179.984Z" transform="translate(-323.97 -165.475)" fill="#e4282b"/><path d="M374.55,180.235a.933.933,0,0,1,.907-.925.881.881,0,0,1,.632.274l-.224.212a.547.547,0,0,0-.412-.192.634.634,0,0,0,0,1.263.567.567,0,0,0,.419-.2l.223.209a.886.886,0,0,1-.646.284A.933.933,0,0,1,374.55,180.235Z" transform="translate(-338.699 -165.486)" fill="#e4282b"/><path d="M391.778,180.669l.207.219a1.017,1.017,0,0,1-.695.274.9.9,0,0,1-.885-.906c0-.008,0-.017,0-.025a.878.878,0,0,1,.83-.921h.028c.525,0,.827.41.827,1.045h-1.353a.552.552,0,0,0,.549.506A.734.734,0,0,0,391.778,180.669Zm-1.034-.591h1.034a.485.485,0,0,0-.5-.473.543.543,0,0,0-.542.479Z" transform="translate(-352.732 -165.486)" fill="#e4282b"/><path d="M407.54,180.9l.156-.242a.978.978,0,0,0,.582.215c.193,0,.325-.092.325-.23,0-.164-.176-.215-.388-.277-.4-.118-.593-.229-.593-.517a.558.558,0,0,1,.626-.538,1.156,1.156,0,0,1,.635.206l-.142.25a.94.94,0,0,0-.488-.164c-.17,0-.3.076-.3.209s.107.177.4.27.585.182.585.535-.276.548-.651.548A1.182,1.182,0,0,1,407.54,180.9Z" transform="translate(-367.899 -165.486)" fill="#e4282b"/><path d="M431.88,174.74h.788a1.182,1.182,0,1,1,0,2.358h-.788Zm.8,2.037a.862.862,0,1,0,0-1.722h-.469v1.727Z" transform="translate(-389.443 -161.456)" fill="#e4282b"/><path d="M453.3,173.913a.2.2,0,1,1,.2.2A.2.2,0,0,1,453.3,173.913Zm.033.5h.329v1.774h-.329Z" transform="translate(-408.403 -160.548)" fill="#e4282b"/><path d="M461.75,179.351v1.578a.8.8,0,0,1-.872.777,1.155,1.155,0,0,1-.718-.237l.13-.254a.79.79,0,0,0,.539.2c.369,0,.592-.181.592-.49v-.252a.711.711,0,0,1-.608.322.843.843,0,0,1,0-1.681.715.715,0,0,1,.608.325v-.284Zm-.33.8a.524.524,0,1,0-.525.548.513.513,0,0,0,.52-.508c0-.013,0-.027,0-.04Z" transform="translate(-414.36 -165.485)" fill="#e4282b"/><path d="M479,173.913a.2.2,0,1,1,.2.2A.2.2,0,0,1,479,173.913Zm.032.5h.33v1.774h-.33Z" transform="translate(-431.151 -160.548)" fill="#e4282b"/><path d="M486.346,177.721a.541.541,0,0,1-.345.127.447.447,0,0,1-.453-.441c0-.014,0-.028,0-.041v-1.041h-.258v-.287h.258v-.486h.323v.486h.406v.287h-.406v1.017a.194.194,0,0,0,.172.211h0a.252.252,0,0,0,.176-.065Z" transform="translate(-436.718 -162.171)" fill="#e4282b"/><path d="M498.251,180.023v1.072h-.322v-.243a.711.711,0,0,1-.574.284.574.574,0,0,1-.635-.565.633.633,0,0,1,.689-.591,1.59,1.59,0,0,1,.519.1v-.056a.41.41,0,0,0-.442-.458,1.065,1.065,0,0,0-.486.147l-.115-.25a1.426,1.426,0,0,1,.651-.179A.679.679,0,0,1,498.251,180.023Zm-.322.517V180.3a1.549,1.549,0,0,0-.47-.069c-.23,0-.422.134-.422.325s.167.308.383.308A.5.5,0,0,0,497.93,180.54Z" transform="translate(-446.835 -165.459)" fill="#e4282b"/><path d="M514.3,174.39h.326v2.393H514.3Z" transform="translate(-462.396 -161.148)" fill="#e4282b"/><path d="M521.979,180.669l.206.219a1.017,1.017,0,0,1-.695.274.9.9,0,0,1-.885-.906c0-.008,0-.017,0-.025a.878.878,0,0,1,.83-.921h.028c.526,0,.828.41.828,1.045h-1.353a.551.551,0,0,0,.548.506A.738.738,0,0,0,521.979,180.669Zm-1.034-.591h1.034a.486.486,0,0,0-.5-.473.543.543,0,0,0-.542.479Z" transform="translate(-467.976 -165.486)" fill="#e4282b"/><path d="M537.75,180.9l.156-.242a.977.977,0,0,0,.581.215c.193,0,.326-.092.326-.23,0-.164-.177-.215-.389-.277-.4-.118-.592-.229-.592-.517a.557.557,0,0,1,.625-.538,1.152,1.152,0,0,1,.635.206l-.146.25a.945.945,0,0,0-.489-.164c-.169,0-.3.076-.3.209s.106.177.4.27.586.182.586.535-.277.548-.652.548A1.176,1.176,0,0,1,537.75,180.9Z" transform="translate(-483.152 -165.486)" fill="#e4282b"/></svg>
